<svg width="40" height="40" viewBox="0 0 40 40" fill="none" xmlns="http://www.w3.org/2000/svg">
<path fill-rule="evenodd" clip-rule="evenodd" d="M14.5492 8L18.7565 12.7295C18.7565 12.7295 17.886 14.0156 18.4456 17.7701L17.8238 18.3924C14.8808 17.6664 12.7461 18.828 12.7461 18.828L8.02073 14.5549V12.9576C9.61658 12.5428 11.2746 12.5013 12.8912 12.8124C12.8869 12.7696 12.8791 12.7071 12.8691 12.6271C12.7822 11.932 12.5302 9.91595 12.9948 8H14.5492ZM8.26943 14.4304L12.7461 18.4546L12.7254 17.4589L8.26943 13.414V14.4304ZM8.60104 13.3518L13.0363 17.3552C14.2591 17.0233 15.5648 16.9196 16.829 17.0856L13.1606 13.414C11.6684 13.0614 10.114 13.0406 8.60104 13.3518ZM13.4715 13.0614L17.2021 16.7952C17.0058 14.7133 17.3484 13.3939 17.4382 13.0481L17.4508 12.9991L13.4301 8.51858C13.057 10.3232 13.3886 12.5428 13.4715 13.0614ZM13.5544 8.26966L17.6166 12.771H18.4456L14.4456 8.26966H13.5544ZM22.1969 18.3717L21.5751 17.7494C22.114 14.0156 21.2435 12.7295 21.2435 12.7295L25.4508 8H27.0052C27.4737 9.9506 27.2136 11.986 27.1288 12.6495C27.1198 12.7198 27.1128 12.7747 27.1088 12.8124C28.7254 12.4806 30.4041 12.5428 32 12.9576V14.5549L27.2746 18.828C27.2746 18.828 25.1192 17.6664 22.1969 18.3717ZM31.7306 13.414L27.2539 17.4589V18.4546L31.7306 14.4304V13.414ZM26.8394 13.3933L23.171 17.0648C24.456 16.9196 25.7409 17.0233 26.9845 17.3345L31.399 13.331C29.886 13.0199 28.3316 13.0406 26.8394 13.3933ZM26.57 8.51858L22.5492 12.9991L22.5618 13.0481C22.6516 13.3939 22.9942 14.7133 22.7979 16.7952L26.5285 13.0614C26.6114 12.5428 26.9637 10.3232 26.57 8.51858ZM25.5751 8.26966L21.5751 12.771H22.4041L26.4663 8.26966H25.5751ZM21.2435 27.2705L25.4508 32H27.0052C27.4698 30.0841 27.2178 28.068 27.1309 27.373C27.1209 27.2929 27.1131 27.2304 27.1088 27.1876C28.7254 27.4987 30.4041 27.4572 32 27.0424V25.4451L27.2746 21.1927C27.2746 21.1927 25.1399 22.3544 22.1969 21.6491L21.5751 22.2714C22.114 26.0052 21.2435 27.2705 21.2435 27.2705ZM27.2539 21.5454L31.7306 25.5696V26.586L27.2746 22.5411L27.2539 21.5454ZM26.9845 22.6655C27.0881 22.7485 31.1295 26.4201 31.399 26.669C29.886 26.9801 28.3316 26.9594 26.8394 26.6068L23.171 22.9352C24.456 23.1011 25.7409 22.9974 26.9845 22.6655ZM22.8187 23.2256L26.5492 26.9594C26.6321 27.478 26.9637 29.6975 26.5907 31.5022L22.5492 27.0216L22.5611 26.9751C22.6499 26.6317 22.9957 25.2931 22.8187 23.2256ZM22.4041 27.2498L26.4663 31.7511H25.5751L21.5751 27.2498H22.4041ZM17.8031 21.6283L18.4249 22.2506C17.886 26.0052 18.7565 27.2705 18.7565 27.2705L14.5492 32H12.9948C12.5263 30.0494 12.7864 28.014 12.8712 27.3505C12.8802 27.2802 12.8872 27.2253 12.8912 27.1875C11.2746 27.5194 9.59585 27.4572 8 27.0423V25.4451L12.7254 21.172C12.7254 21.172 14.8808 22.3336 17.8031 21.6283ZM8.29016 26.6067L12.7461 22.5618V21.5661L8.29016 25.5903V26.6067ZM13.1606 26.6067L16.829 22.9351C15.5648 23.1011 14.2591 22.9974 13.0155 22.6655L8.60104 26.6689C10.114 26.9801 11.6684 26.9593 13.1606 26.6067ZM13.4301 31.5021C13.658 31.2532 17.3886 27.1045 17.4508 27.0216C17.4477 27.0092 17.4438 26.9941 17.4392 26.9762C17.351 26.6346 17.0051 25.2954 17.2021 23.2256L13.4715 26.9593C13.3886 27.4779 13.0363 29.6975 13.4301 31.5021ZM14.4249 31.7511L18.4249 27.2498H17.5959L13.5337 31.7511H14.4249Z" fill="#BCBBB5"/>
</svg>
