<svg width="20" height="20" viewBox="0 0 20 20" fill="none" xmlns="http://www.w3.org/2000/svg">
<g clip-path="url(#clip0_16175_343)">
<path fill-rule="evenodd" clip-rule="evenodd" d="M13.7347 1.76483C14.3316 1.16809 15.1411 0.832902 15.9852 0.833008C16.8292 0.833114 17.6386 1.1685 18.2353 1.76539C18.8321 2.36228 19.1673 3.17178 19.1672 4.01581C19.1671 4.85978 18.8317 5.66914 18.2349 6.26587C18.2349 6.26591 18.2348 6.26595 18.2348 6.26599L7.1124 17.39L7.11142 17.391C6.82164 17.6799 6.46538 17.8932 6.07392 18.0123L6.07326 18.0125L2.44576 19.1125L2.44382 19.1131C2.22771 19.178 1.99805 19.1833 1.77922 19.1282C1.56038 19.0732 1.3605 18.96 1.20081 18.8006C1.04112 18.6411 0.927567 18.4414 0.872198 18.2227C0.816829 18.0039 0.821709 17.7743 0.886321 17.5581C0.886663 17.5569 0.887008 17.5558 0.887355 17.5546L1.98819 13.9279L1.98887 13.9257C2.10892 13.5342 2.32329 13.1782 2.61315 12.8889C2.61339 12.8887 2.61363 12.8884 2.61387 12.8882L13.7347 1.76483ZM14.9131 2.94349L3.79159 14.0675L3.79065 14.0684C3.69415 14.1647 3.62272 14.2831 3.58261 14.4133C3.58252 14.4136 3.58242 14.414 3.58232 14.4143L2.70913 17.291L5.58894 16.4177C5.71927 16.3781 5.83788 16.3071 5.93442 16.211C5.93454 16.2109 5.93466 16.2108 5.93478 16.2106L17.0564 5.08733C17.3407 4.80311 17.5004 4.4176 17.5005 4.0156C17.5006 3.6136 17.3409 3.22805 17.0567 2.94376C16.7725 2.65947 16.387 2.49972 15.985 2.49967C15.583 2.49962 15.1974 2.65927 14.9131 2.94349Z" fill="#82827C"/>
<path fill-rule="evenodd" clip-rule="evenodd" d="M11.9101 3.57709C12.2355 3.25165 12.7632 3.25165 13.0886 3.57709L16.4219 6.91042C16.7474 7.23586 16.7474 7.76349 16.4219 8.08893C16.0965 8.41437 15.5689 8.41437 15.2434 8.08893L11.9101 4.7556C11.5847 4.43016 11.5847 3.90252 11.9101 3.57709Z" fill="#82827C"/>
</g>
<defs>
<clipPath id="clip0_16175_343">
<rect width="20" height="20" fill="white"/>
</clipPath>
</defs>
</svg>
