<svg width="16" height="16" viewBox="0 0 16 16" fill="none" xmlns="http://www.w3.org/2000/svg">
<path fill-rule="evenodd" clip-rule="evenodd" d="M3.33398 2.66634C2.96579 2.66634 2.66732 2.96482 2.66732 3.33301V12.6663C2.66732 13.0345 2.96579 13.333 3.33398 13.333H12.6673C13.0355 13.333 13.334 13.0345 13.334 12.6663V3.33301C13.334 2.96482 13.0355 2.66634 12.6673 2.66634H3.33398ZM1.33398 3.33301C1.33398 2.22844 2.22941 1.33301 3.33398 1.33301H12.6673C13.7719 1.33301 14.6673 2.22844 14.6673 3.33301V12.6663C14.6673 13.7709 13.7719 14.6663 12.6673 14.6663H3.33398C2.22941 14.6663 1.33398 13.7709 1.33398 12.6663V3.33301Z" fill="#35944B"/>
<path fill-rule="evenodd" clip-rule="evenodd" d="M6 5.33333C5.63181 5.33333 5.33333 5.63181 5.33333 6C5.33333 6.36819 5.63181 6.66667 6 6.66667C6.36819 6.66667 6.66667 6.36819 6.66667 6C6.66667 5.63181 6.36819 5.33333 6 5.33333ZM4 6C4 4.89543 4.89543 4 6 4C7.10457 4 8 4.89543 8 6C8 7.10457 7.10457 8 6 8C4.89543 8 4 7.10457 4 6Z" fill="#35944B"/>
<path fill-rule="evenodd" clip-rule="evenodd" d="M9.58665 7.47131C9.96171 7.09637 10.4703 6.88574 11.0007 6.88574C11.531 6.88574 12.0396 7.09637 12.4147 7.47131L11.9434 7.94274L12.4147 7.47139L14.4721 9.52872C14.7324 9.78907 14.7324 10.2112 14.4721 10.4715C14.2117 10.7319 13.7896 10.7319 13.5292 10.4715L11.472 8.41427C11.347 8.28929 11.1774 8.21908 11.0007 8.21908C10.8239 8.21908 10.6544 8.28926 10.5294 8.41419C10.5294 8.41422 10.5293 8.41424 10.5293 8.41427L4.47206 14.4715C4.21171 14.7319 3.7896 14.7319 3.52925 14.4715C3.2689 14.2112 3.2689 13.7891 3.52925 13.5287L9.58658 7.47139L10.0579 7.94274L9.58665 7.47131Z" fill="#35944B"/>
</svg>
