<svg width="16" height="16" viewBox="0 0 16 16" fill="none" xmlns="http://www.w3.org/2000/svg">
<path fill-rule="evenodd" clip-rule="evenodd" d="M4.66602 8.00033C4.66602 7.26395 5.26297 6.66699 5.99935 6.66699C6.73573 6.66699 7.33268 7.26395 7.33268 8.00033C7.33268 8.73671 6.73573 9.33366 5.99935 9.33366C5.26297 9.33366 4.66602 8.73671 4.66602 8.00033Z" fill="#63635E"/>
<path fill-rule="evenodd" clip-rule="evenodd" d="M4.66602 3.33333C4.66602 2.59695 5.26297 2 5.99935 2C6.73573 2 7.33268 2.59695 7.33268 3.33333C7.33268 4.06971 6.73573 4.66667 5.99935 4.66667C5.26297 4.66667 4.66602 4.06971 4.66602 3.33333Z" fill="#63635E"/>
<path fill-rule="evenodd" clip-rule="evenodd" d="M4.66602 12.6663C4.66602 11.93 5.26297 11.333 5.99935 11.333C6.73573 11.333 7.33268 11.93 7.33268 12.6663C7.33268 13.4027 6.73573 13.9997 5.99935 13.9997C5.26297 13.9997 4.66602 13.4027 4.66602 12.6663Z" fill="#63635E"/>
<path fill-rule="evenodd" clip-rule="evenodd" d="M8.66602 8.00033C8.66602 7.26395 9.26297 6.66699 9.99935 6.66699C10.7357 6.66699 11.3327 7.26395 11.3327 8.00033C11.3327 8.73671 10.7357 9.33366 9.99935 9.33366C9.26297 9.33366 8.66602 8.73671 8.66602 8.00033Z" fill="#63635E"/>
<path fill-rule="evenodd" clip-rule="evenodd" d="M8.66602 3.33333C8.66602 2.59695 9.26297 2 9.99935 2C10.7357 2 11.3327 2.59695 11.3327 3.33333C11.3327 4.06971 10.7357 4.66667 9.99935 4.66667C9.26297 4.66667 8.66602 4.06971 8.66602 3.33333Z" fill="#63635E"/>
<path fill-rule="evenodd" clip-rule="evenodd" d="M8.66602 12.6663C8.66602 11.93 9.26297 11.333 9.99935 11.333C10.7357 11.333 11.3327 11.93 11.3327 12.6663C11.3327 13.4027 10.7357 13.9997 9.99935 13.9997C9.26297 13.9997 8.66602 13.4027 8.66602 12.6663Z" fill="#63635E"/>
</svg>
