<svg width="16" height="16" viewBox="0 0 16 16" fill="none" xmlns="http://www.w3.org/2000/svg">
<path fill-rule="evenodd" clip-rule="evenodd" d="M0.666016 1.99967C0.666016 1.63148 0.964492 1.33301 1.33268 1.33301H14.666C15.0342 1.33301 15.3327 1.63148 15.3327 1.99967C15.3327 2.36786 15.0342 2.66634 14.666 2.66634H1.33268C0.964492 2.66634 0.666016 2.36786 0.666016 1.99967Z" fill="#AB8334"/>
<path fill-rule="evenodd" clip-rule="evenodd" d="M2.00065 1.33301C2.36884 1.33301 2.66732 1.63148 2.66732 1.99967V9.33301C2.66732 9.50982 2.73756 9.67939 2.86258 9.80441C2.9876 9.92944 3.15717 9.99968 3.33398 9.99968H12.6673C12.8441 9.99968 13.0137 9.92944 13.1387 9.80441C13.2637 9.67939 13.334 9.50982 13.334 9.33301V1.99967C13.334 1.63148 13.6325 1.33301 14.0007 1.33301C14.3688 1.33301 14.6673 1.63148 14.6673 1.99967V9.33301C14.6673 9.86344 14.4566 10.3721 14.0815 10.7472C13.7065 11.1223 13.1978 11.333 12.6673 11.333H3.33398C2.80355 11.333 2.29484 11.1223 1.91977 10.7472C1.5447 10.3721 1.33398 9.86344 1.33398 9.33301V1.99967C1.33398 1.63148 1.63246 1.33301 2.00065 1.33301Z" fill="#AB8334"/>
<path fill-rule="evenodd" clip-rule="evenodd" d="M7.5286 10.1953C7.78895 9.93491 8.21106 9.93491 8.47141 10.1953L11.8047 13.5286C12.0651 13.7889 12.0651 14.2111 11.8047 14.4714C11.5444 14.7318 11.1223 14.7318 10.8619 14.4714L8 11.6095L5.13807 14.4714C4.87772 14.7318 4.45561 14.7318 4.19526 14.4714C3.93491 14.2111 3.93491 13.7889 4.19526 13.5286L7.5286 10.1953Z" fill="#AB8334"/>
</svg>
