<svg width="16" height="16" viewBox="0 0 16 16" fill="none" xmlns="http://www.w3.org/2000/svg">
<path fill-rule="evenodd" clip-rule="evenodd" d="M8.00065 4C8.36884 4 8.66732 4.29848 8.66732 4.66667V14C8.66732 14.3682 8.36884 14.6667 8.00065 14.6667C7.63246 14.6667 7.33398 14.3682 7.33398 14V4.66667C7.33398 4.29848 7.63246 4 8.00065 4Z" fill="#964947"/>
<path fill-rule="evenodd" clip-rule="evenodd" d="M10 7.99967C10 7.63148 10.2985 7.33301 10.6667 7.33301H12C12.3682 7.33301 12.6667 7.63148 12.6667 7.99967C12.6667 8.36786 12.3682 8.66634 12 8.66634H10.6667C10.2985 8.66634 10 8.36786 10 7.99967Z" fill="#964947"/>
<path fill-rule="evenodd" clip-rule="evenodd" d="M10 5.33366C10 4.96547 10.2985 4.66699 10.6667 4.66699H12C12.3682 4.66699 12.6667 4.96547 12.6667 5.33366C12.6667 5.70185 12.3682 6.00033 12 6.00033H10.6667C10.2985 6.00033 10 5.70185 10 5.33366Z" fill="#964947"/>
<path fill-rule="evenodd" clip-rule="evenodd" d="M1.05654 1.72353C1.30659 1.47348 1.64573 1.33301 1.99935 1.33301H5.33268C6.21674 1.33301 7.06458 1.6842 7.68971 2.30932C7.80189 2.4215 7.90525 2.54086 7.99935 2.66632C8.09344 2.54086 8.19681 2.4215 8.30899 2.30932C8.93412 1.6842 9.78196 1.33301 10.666 1.33301H13.9994C14.353 1.33301 14.6921 1.47348 14.9422 1.72353C15.1922 1.97358 15.3327 2.31272 15.3327 2.66634V11.333C15.3327 11.6866 15.1922 12.0258 14.9422 12.2758C14.6921 12.5259 14.353 12.6663 13.9994 12.6663H9.99935C9.64573 12.6663 9.30659 12.8068 9.05654 13.0569C8.80649 13.3069 8.66602 13.6461 8.66602 13.9997C8.66602 14.3679 8.36754 14.6663 7.99935 14.6663C7.63116 14.6663 7.33268 14.3679 7.33268 13.9997C7.33268 13.6461 7.19221 13.3069 6.94216 13.0569C6.69211 12.8068 6.35297 12.6663 5.99935 12.6663H1.99935C1.64573 12.6663 1.30659 12.5259 1.05654 12.2758C0.806491 12.0258 0.666016 11.6866 0.666016 11.333V2.66634C0.666016 2.31272 0.806491 1.97358 1.05654 1.72353ZM7.99935 12.2358C8.03609 12.1942 8.07423 12.1536 8.11373 12.1141C8.61383 11.614 9.29211 11.333 9.99935 11.333H13.9994V2.66634H10.666C10.1356 2.66634 9.62688 2.87705 9.2518 3.25213C8.87673 3.6272 8.66602 4.13591 8.66602 4.66634C8.66602 5.03453 8.36754 5.33301 7.99935 5.33301C7.63116 5.33301 7.33268 5.03453 7.33268 4.66634C7.33268 4.13591 7.12197 3.6272 6.7469 3.25213C6.37182 2.87705 5.86312 2.66634 5.33268 2.66634H1.99935V11.333H5.99935C6.70659 11.333 7.38487 11.614 7.88497 12.1141C7.92447 12.1536 7.96261 12.1942 7.99935 12.2358Z" fill="#964947"/>
<path fill-rule="evenodd" clip-rule="evenodd" d="M3.33398 7.99967C3.33398 7.63148 3.63246 7.33301 4.00065 7.33301H5.33398C5.70217 7.33301 6.00065 7.63148 6.00065 7.99967C6.00065 8.36786 5.70217 8.66634 5.33398 8.66634H4.00065C3.63246 8.66634 3.33398 8.36786 3.33398 7.99967Z" fill="#964947"/>
<path fill-rule="evenodd" clip-rule="evenodd" d="M3.33398 5.33366C3.33398 4.96547 3.63246 4.66699 4.00065 4.66699H5.33398C5.70217 4.66699 6.00065 4.96547 6.00065 5.33366C6.00065 5.70185 5.70217 6.00033 5.33398 6.00033H4.00065C3.63246 6.00033 3.33398 5.70185 3.33398 5.33366Z" fill="#964947"/>
</svg>
