<svg width="16" height="16" viewBox="0 0 16 16" fill="none" xmlns="http://www.w3.org/2000/svg">
<path fill-rule="evenodd" clip-rule="evenodd" d="M14.33 4.2461C14.506 4.2455 14.679 4.29134 14.8316 4.37899C14.9841 4.46663 15.1109 4.59299 15.199 4.74529C15.2871 4.89753 15.3335 5.07031 15.3334 5.24619C15.3334 5.24626 15.3334 5.24632 15.3334 5.24639V10.7105C15.3333 10.8914 15.2842 11.0689 15.1912 11.2241C15.0982 11.3792 14.9649 11.5062 14.8054 11.5916C14.646 11.677 14.4663 11.7175 14.2857 11.7089C14.105 11.7002 13.93 11.6427 13.7794 11.5425L10.297 9.22089C9.99062 9.01666 9.90784 8.60274 10.1121 8.29639C10.3163 7.99004 10.7302 7.90726 11.0366 8.11149L14.0001 10.0872V5.8265L11.0027 7.57535C10.6847 7.7609 10.2765 7.65351 10.091 7.33549C9.9054 7.01748 10.0128 6.60926 10.3308 6.4237L13.8294 4.38239C13.8295 4.38238 13.8295 4.38238 13.8295 4.38237C13.9814 4.2937 14.1541 4.2467 14.33 4.2461ZM14.5011 5.53418C14.5012 5.53412 14.5013 5.53406 14.5014 5.53399L14.5014 5.53401L14.5011 5.53418Z" fill="#714796"/>
<path fill-rule="evenodd" clip-rule="evenodd" d="M2.66602 4.66634C2.29783 4.66634 1.99935 4.96482 1.99935 5.33301V10.6663C1.99935 11.0345 2.29783 11.333 2.66602 11.333H9.33268C9.70087 11.333 9.99935 11.0345 9.99935 10.6663V5.33301C9.99935 4.96482 9.70087 4.66634 9.33268 4.66634H2.66602ZM0.666016 5.33301C0.666016 4.22844 1.56145 3.33301 2.66602 3.33301H9.33268C10.4373 3.33301 11.3327 4.22844 11.3327 5.33301V10.6663C11.3327 11.7709 10.4373 12.6663 9.33268 12.6663H2.66602C1.56145 12.6663 0.666016 11.7709 0.666016 10.6663V5.33301Z" fill="#714796"/>
</svg>
