<svg width="20" height="20" viewBox="0 0 20 20" fill="none" xmlns="http://www.w3.org/2000/svg">
<rect x="0.1" y="0.1" width="19.8" height="19.8" rx="9.9" stroke="#E5E5E4" stroke-width="0.2"/>
<rect x="1" y="1.00098" width="18" height="18" rx="9" fill="#4A8CFF"/>
<path d="M12.6275 8.83215L15.1765 6.9694C15.399 6.78803 15.5686 6.83018 15.5686 7.16548V12.8459C15.5686 13.2224 15.3569 13.1792 15.1765 13.042L12.6275 11.1792V8.83215ZM4 7.1792V11.4145C4.00233 11.8743 4.18716 12.3144 4.51386 12.6379C4.84055 12.9615 5.28236 13.1421 5.74216 13.14H11.9186C12.0022 13.1403 12.0824 13.1074 12.1418 13.0486C12.2012 12.9898 12.2348 12.9098 12.2353 12.8263V8.59097C12.233 8.13117 12.0481 7.69112 11.7215 7.36755C11.3948 7.04398 10.9529 6.86339 10.4931 6.86548H4.31667C4.23311 6.86522 4.15286 6.89809 4.0935 6.9569C4.03414 7.01571 4.00052 7.09565 4 7.1792Z" fill="white"/>
</svg>
